<svg id="visual" viewBox="0 0 900 600" width="900" height="600" xmlns="http://www.w3.org/2000/svg" xmlns:xlink="http://www.w3.org/1999/xlink" version="1.1"><g transform="translate(878.2474013715166 236.90387570970913)"><path d="M310.1 -597.3C387.9 -492.2 427.4 -380.9 371.8 -280.3C316.2 -179.7 165.6 -89.8 124.7 -23.6C83.9 42.7 152.8 85.3 189.1 152.5C225.3 219.6 228.9 311.1 192 340.8C155 370.5 77.5 338.2 7.8 324.8C-62 311.4 -124 316.8 -161.2 287.3C-198.5 257.8 -211 193.4 -180 139.7C-149 86 -74.5 43 -87.6 -7.6C-100.8 -58.2 -201.5 -116.3 -271.8 -238.2C-342.2 -360 -382.1 -545.5 -331.7 -666.4C-281.3 -787.3 -140.7 -843.6 -12.3 -822.4C116.2 -801.2 232.3 -702.4 310.1 -597.3" fill="#FFF1DA"></path></g></svg>