<!DOCTYPE svg PUBLIC "-//W3C//DTD SVG 1.1//EN" "http://www.w3.org/Graphics/SVG/1.1/DTD/svg11.dtd">
<!-- Uploaded to: SVG Repo, www.svgrepo.com, Transformed by: SVG Repo Mixer Tools -->
<svg fill="#ffffff" width="800px" height="800px" viewBox="0 0 24 24" id="send-alt" data-name="Flat Line" xmlns="http://www.w3.org/2000/svg" class="icon flat-line" stroke="#ffffff">
<g id="SVGRepo_bgCarrier" stroke-"idth="&quot;0&quot;&quot;"/>
<g id="SVGRepo_tracerCarrier" stroke-linecap="round" stroke-linejoin="round" stroke="#CCCCCC" stroke-"idth="&quot;1.248&quot;&quot;"/>
<g id="SVGRepo_iconCarrier">
<path id="secondary" d="M3.69,8.75,19.61,3.06a1,1,0,0,1,1.33,1.33L15.25,20.31a1,1,0,0,1-1.95,0l-2.51-6.52a1,1,0,0,0-.6-.6L3.67,10.7A1,1,0,0,1,3.69,8.75Z" style="fill: #ffffff; stroke-idth: 2;"/>
<path id="primary" d="M10.62,13.38l3-3m-9.9.27,6.52,2.51a1,1,0,0,1,.6.6l2.51,6.52a1,1,0,0,0,1.95,0L20.94,4.39a1,1,0,0,0-1.33-1.33L3.69,8.75A1,1,0,0,0,3.67,10.7Z" style="fill: none; stroke: ; stroke-linecap: round; stroke-linejoin: round; stroke-idth: 2;"/>
</g>
</svg>